<svg xmlns="http://www.w3.org/2000/svg" xmlns:xlink="http://www.w3.org/1999/xlink" width="500" zoomAndPan="magnify" viewBox="0 0 375 374.999991" height="500" preserveAspectRatio="xMidYMid meet" version="1.0"><path fill="#be44cd" d="M 23.765625 227.414062 C 33.792969 252.839844 57.148438 274.550781 91.964844 276.550781 C 114.480469 277.851562 131.160156 267.636719 131.160156 267.636719 C 52.253906 242.625 19.027344 159.507812 42.808594 106.914062 C 20.875 138.3125 8.351562 188.285156 23.765625 227.414062 Z M 23.765625 227.414062 " fill-opacity="1" fill-rule="nonzero"/><path fill="#be44cd" d="M 131.160156 267.65625 C 131.160156 267.65625 154.410156 254.703125 168.59375 225.636719 C 126.847656 212.734375 85.511719 154 115.984375 95.742188 C 66.933594 162.296875 85.1875 231.761719 131.160156 267.65625 Z M 131.160156 267.65625 " fill-opacity="1" fill-rule="nonzero"/><path fill="#be44cd" d="M 168.59375 225.636719 C 175.867188 209.636719 177.148438 193.984375 177.183594 182.042969 C 177.253906 153.316406 158.414062 128.746094 158.414062 128.746094 C 141.871094 151.109375 139.679688 198.875 168.59375 225.636719 Z M 168.59375 225.636719 " fill-opacity="1" fill-rule="nonzero"/><path fill="#be44cd" d="M 158.414062 128.730469 C 176.621094 102.605469 220.863281 97.472656 245.210938 107.359375 C 212.941406 80.414062 146.917969 66.023438 115.984375 95.742188 C 134.085938 104.296875 150.75 117.179688 158.414062 128.730469 Z M 158.414062 128.730469 " fill-opacity="1" fill-rule="nonzero"/><path fill="#be44cd" d="M 115.984375 95.726562 C 153.503906 43.59375 231.796875 34.183594 286.269531 68.042969 C 200.726562 -1.4375 83.167969 34.152344 42.808594 106.933594 C 56.820312 85.445312 92.167969 86.144531 115.984375 95.726562 Z M 115.984375 95.726562 " fill-opacity="1" fill-rule="nonzero"/><path fill="#be44cd" d="M 352.585938 147.582031 C 342.558594 122.160156 319.207031 100.449219 284.390625 98.445312 C 261.875 97.144531 245.191406 107.359375 245.191406 107.359375 C 324.097656 132.375 357.324219 215.488281 333.542969 268.082031 C 355.476562 236.6875 368.019531 186.730469 352.585938 147.582031 Z M 352.585938 147.582031 " fill-opacity="1" fill-rule="nonzero"/><path fill="#be44cd" d="M 245.210938 107.34375 C 245.210938 107.34375 221.957031 120.292969 207.773438 149.363281 C 249.519531 162.261719 290.855469 221 260.386719 279.253906 C 309.421875 212.699219 291.164062 143.238281 245.210938 107.34375 Z M 245.210938 107.34375 " fill-opacity="1" fill-rule="nonzero"/><path fill="#be44cd" d="M 207.757812 149.363281 C 200.488281 165.359375 199.203125 181.015625 199.167969 192.957031 C 199.101562 221.683594 217.9375 246.25 217.9375 246.25 C 234.480469 223.890625 236.671875 176.121094 207.757812 149.363281 Z M 207.757812 149.363281 " fill-opacity="1" fill-rule="nonzero"/><path fill="#be44cd" d="M 217.953125 246.269531 C 199.75 272.394531 155.507812 277.527344 131.160156 267.636719 C 163.429688 294.585938 229.453125 308.972656 260.386719 279.253906 C 242.265625 270.699219 225.601562 257.816406 217.953125 246.269531 Z M 217.953125 246.269531 " fill-opacity="1" fill-rule="nonzero"/><path fill="#be44cd" d="M 260.386719 279.273438 C 222.863281 331.402344 144.574219 340.8125 90.097656 306.953125 C 175.628906 376.433594 293.199219 340.863281 333.542969 268.066406 C 319.53125 289.554688 284.183594 288.871094 260.386719 279.273438 Z M 260.386719 279.273438 " fill-opacity="1" fill-rule="nonzero"/></svg>