<svg width="282" height="69" viewBox="0 0 282 69" fill="none" xmlns="http://www.w3.org/2000/svg">
<g clip-path="url(#clip0_6_2)">
<path d="M87.6674 50.8991H97.6232L101.72 30.9492H103.133L107.227 50.8991H117.186L122.34 26.0045H116.868L112.915 45.9544H111.501L107.548 26.0045H97.3056L93.3519 45.9544H91.9386L87.9849 26.0045H82.5098L87.6674 50.8991Z" fill="white"/>
<path d="M124.458 41.9658C124.458 48.2157 128.907 51.2516 134.522 51.2516C140.098 51.2516 144.547 48.2157 144.547 41.9658C144.547 35.7509 140.098 32.7149 134.522 32.7149C128.907 32.7149 124.458 35.7509 124.458 41.9658ZM130.107 41.9658C130.107 38.9997 131.838 37.6562 134.522 37.6562C137.167 37.6562 138.897 38.9997 138.897 41.9658C138.897 44.9669 137.167 46.3104 134.522 46.3104C131.838 46.3104 130.107 44.9669 130.107 41.9658Z" fill="white"/>
<path d="M153.727 50.8992V37.7993L162.803 38.0121V33.0674L151.113 32.7847C149.173 32.7498 148.077 33.8107 148.077 35.7509V50.8992H153.727Z" fill="white"/>
<path d="M189.141 32.7149C185.683 32.7149 184.091 34.868 183.386 38.047H182.364C181.834 34.9378 180.42 32.7149 177.067 32.7149C173.605 32.7149 171.982 34.868 171.274 38.047H169.864L170.922 34.868V33.0674H165.272V50.8992H170.922V44.6493C170.922 40.3432 171.627 37.6562 174.701 37.6562C176.784 37.6562 177.349 38.6123 177.349 42.0007V50.8992H182.999V44.6493C182.999 40.3432 183.704 37.6562 186.775 37.6562C188.858 37.6562 189.423 38.6123 189.423 42.0007V50.8992H195.073V41.6134C195.073 36.8117 193.698 32.7149 189.141 32.7149Z" fill="white"/>
<path d="M211.703 32.7149C207.889 32.7149 205.666 35.2204 204.958 38.3994H203.548L204.605 35.2204V24.9471H198.956V50.8991H204.605V44.2968C204.605 39.2823 206.619 37.6561 209.689 37.6561C212.408 37.6561 213.364 38.8949 213.364 42.1437V50.8991H219.014V41.2609C219.014 35.7508 216.257 32.7149 211.703 32.7149Z" fill="white"/>
<path d="M222.189 41.9658C222.189 48.2157 226.638 51.2516 232.253 51.2516C237.83 51.2516 242.279 48.2157 242.279 41.9658C242.279 35.7509 237.83 32.7149 232.253 32.7149C226.638 32.7149 222.189 35.7509 222.189 41.9658ZM227.839 41.9658C227.839 38.9997 229.57 37.6562 232.253 37.6562C234.898 37.6562 236.629 38.9997 236.629 41.9658C236.629 44.9669 234.898 46.3104 232.253 46.3104C229.57 46.3104 227.839 44.9669 227.839 41.9658Z" fill="white"/>
<path d="M260.287 50.8991V45.9544H255.342V27.6655C255.342 25.6869 254.247 24.6295 252.272 24.6993L245.456 24.9471V29.8883L249.693 29.679V45.9544H244.752V50.8991H260.287Z" fill="white"/>
<path d="M262.405 41.753C262.405 46.8024 265.545 51.2516 272.395 51.2516C278.575 51.2516 281.507 47.1932 281.859 44.6144H276.21C275.857 45.9544 274.374 46.6628 272.395 46.6628C269.185 46.6628 267.702 45.2146 267.702 43.1662H281.224V41.4005C281.224 35.9986 277.34 32.7149 271.795 32.7149C266.254 32.7149 262.405 36.1033 262.405 41.753ZM267.702 39.9872C267.702 38.6472 268.655 37.3037 271.795 37.3037C274.939 37.3037 275.927 38.6472 275.927 39.9872H267.702Z" fill="white"/>
</g>
<path d="M4.37288 41.8442C6.21791 46.5225 10.5153 50.5173 16.9215 50.8853C21.0644 51.1247 24.1335 49.2451 24.1335 49.2451C9.61472 44.643 3.50103 29.3494 7.87678 19.6722C3.841 25.4495 1.53669 34.6445 4.37288 41.8442Z" fill="#BE44CD"/>
<path d="M24.1335 49.2488C24.1335 49.2488 28.4115 46.8654 31.0213 41.5172C23.34 39.1431 15.7342 28.336 21.3411 17.6166C12.3158 29.8626 15.6745 42.6442 24.1335 49.2488Z" fill="#BE44CD"/>
<path d="M31.0213 41.5171C32.3596 38.5731 32.5953 35.6931 32.6018 33.4959C32.6147 28.2102 29.1482 23.6893 29.1482 23.6893C26.1043 27.8041 25.7011 36.593 31.0213 41.5171Z" fill="#BE44CD"/>
<path d="M29.1482 23.6864C32.4983 18.8794 40.6388 17.935 45.1188 19.7541C39.1812 14.7962 27.0329 12.1483 21.3411 17.6166C24.6718 19.1906 27.738 21.5611 29.1482 23.6864Z" fill="#BE44CD"/>
<path d="M21.3411 17.6137C28.2447 8.02124 42.6506 6.28977 52.6736 12.5199C36.9337 -0.264512 15.3029 6.28402 7.87679 19.6758C10.4549 15.7219 16.9589 15.8506 21.3411 17.6137Z" fill="#BE44CD"/>
<path d="M64.8758 27.1551C63.0308 22.4775 58.7341 18.4826 52.3279 18.1139C48.185 17.8746 45.1152 19.7541 45.1152 19.7541C59.634 24.357 65.7477 39.6498 61.3719 49.3271C65.4077 43.5505 67.7156 34.3584 64.8758 27.1551Z" fill="#BE44CD"/>
<path d="M45.1188 19.7513C45.1188 19.7513 40.8401 22.1339 38.2303 27.4828C45.9116 29.8562 53.5174 40.664 47.9112 51.3827C56.9336 39.1367 53.5742 26.3558 45.1188 19.7513Z" fill="#BE44CD"/>
<path d="M38.2274 27.4828C36.8899 30.4261 36.6534 33.3069 36.6469 35.5041C36.6347 40.7898 40.1005 45.31 40.1005 45.31C43.1444 41.1959 43.5476 32.4063 38.2274 27.4828Z" fill="#BE44CD"/>
<path d="M40.1034 45.3136C36.754 50.1206 28.6134 51.065 24.1335 49.2452C30.0711 54.2038 42.2194 56.851 47.9112 51.3827C44.5769 49.8087 41.5107 47.4382 40.1034 45.3136Z" fill="#BE44CD"/>
<path d="M47.9112 51.3863C41.0068 60.978 26.6017 62.7095 16.578 56.4794C32.3157 69.2638 53.9487 62.7188 61.3719 49.3242C58.7938 53.2781 52.2898 53.1523 47.9112 51.3863Z" fill="#BE44CD"/>
<defs>
<clipPath id="clip0_6_2">
<rect width="199" height="67" fill="white" transform="translate(83 1)"/>
</clipPath>
</defs>
</svg>
